<?xml version="1.0" encoding="utf-8"?>
<!-- Generator: Adobe Illustrator 26.3.1, SVG Export Plug-In . SVG Version: 6.00 Build 0)  -->
<svg version="1.1" id="Capa_1" xmlns="http://www.w3.org/2000/svg" xmlns:xlink="http://www.w3.org/1999/xlink" x="0px" y="0px"
	 width="96px" height="96px" viewBox="0 0 96 96" enable-background="new 0 0 96 96" xml:space="preserve">
<g>
	<path fill="#00EFE8" d="M32.25,57.57H13.19c-3.4,0-6.15-2.76-6.15-6.15V31.1c0-3.4,2.76-6.15,6.15-6.15h19.07L32.25,57.57
		L32.25,57.57z"/>
	<g>
		<path fill="#00EFE8" d="M87.26,75.99c-0.15,0-0.3-0.01-0.45-0.02c-2.62-0.25-4.52-2.57-4.27-5.18l0.68-7.11
			c1.4-14.74,1.4-29.68,0-44.41l-0.68-7.11c-0.25-2.61,1.67-4.93,4.27-5.18c2.61-0.23,4.93,1.67,5.18,4.27l0.68,7.11
			c1.46,15.33,1.46,30.88,0,46.21l-0.68,7.11C91.74,74.14,89.68,75.99,87.26,75.99z"/>
	</g>
	
		<path fill="none" stroke="#2C363B" stroke-width="2.6459" stroke-linecap="round" stroke-linejoin="round" stroke-miterlimit="10" d="
		M43.05,57.57H13.19c-3.4,0-6.15-2.76-6.15-6.15V31.1c0-3.4,2.76-6.15,6.15-6.15h29.86L43.05,57.57L43.05,57.57z"/>
	
		<path fill="none" stroke="#2C363B" stroke-width="2.6459" stroke-linecap="round" stroke-linejoin="round" stroke-miterlimit="10" d="
		M43.05,24.94h5.16c9.54,0,18.87-2.79,26.84-8.01l7.17-4.7l0.66,6.94c1.4,14.7,1.4,29.5,0,44.19l-0.66,6.94l-7.17-4.7
		c-7.97-5.23-17.3-8.01-26.84-8.01h-5.16C43.05,57.57,43.05,24.94,43.05,24.94z"/>
	<g>
		
			<path fill="none" stroke="#2C363B" stroke-width="2.7129" stroke-linecap="round" stroke-linejoin="round" stroke-miterlimit="10" d="
			M86.8,75.99c-0.15,0-0.3-0.01-0.45-0.02c-2.62-0.25-4.52-2.57-4.27-5.18l0.68-7.11c1.4-14.74,1.4-29.68,0-44.41l-0.68-7.11
			c-0.25-2.61,1.67-4.93,4.27-5.18c2.61-0.23,4.93,1.67,5.18,4.27l0.68,7.11c1.46,15.33,1.46,30.88,0,46.21l-0.68,7.11
			C91.28,74.14,89.21,75.99,86.8,75.99z"/>
	</g>
	
		<path fill="none" stroke="#2C363B" stroke-width="2.6459" stroke-linecap="round" stroke-linejoin="round" stroke-miterlimit="10" d="
		M21.47,57.57l3.08,4.36c0.89,1.26,2.33,2,3.87,2h14.63v-6.37L21.47,57.57L21.47,57.57z"/>
	
		<path fill="none" stroke="#2C363B" stroke-width="2.6459" stroke-linecap="round" stroke-linejoin="round" stroke-miterlimit="10" d="
		M29.51,63.94l1.43,22.4c0.09,1.52,1.36,2.7,2.88,2.7h10.02l1.26-3.1c0.59-1.46,0.03-3.12-1.31-3.93l0,0
		c-1.06-0.64-1.74-1.74-1.83-2.96l-1.18-15.11H29.51z"/>
	
		<path fill="none" stroke="#2C363B" stroke-width="2.4836" stroke-linecap="round" stroke-linejoin="round" stroke-miterlimit="10" d="
		M7.14,52.6H6.17c-2.17,0-3.92-1.76-3.92-3.92v-14c0-2.17,1.76-3.92,3.92-3.92h0.88"/>
</g>
</svg>
