<?xml version="1.0" encoding="utf-8"?>
<!-- Generator: Adobe Illustrator 26.3.1, SVG Export Plug-In . SVG Version: 6.00 Build 0)  -->
<svg version="1.1" id="Capa_1" xmlns="http://www.w3.org/2000/svg" xmlns:xlink="http://www.w3.org/1999/xlink" x="0px" y="0px"
	 width="96px" height="96px" viewBox="0 0 96 96" style="enable-background:new 0 0 96 96;" xml:space="preserve">
<style type="text/css">
	.st0{fill:#00EFE8;}
	.st1{fill:none;stroke:#2C363B;stroke-width:2.0379;stroke-linecap:round;stroke-linejoin:round;stroke-miterlimit:10;}
</style>
<polygon class="st0" points="87.6,35.1 11.7,35.1 8.9,17.6 84.9,17.6 "/>
<line class="st1" x1="11.7" y1="35.1" x2="87.6" y2="35.1"/>
<polygon class="st1" points="95.2,84.1 19.3,84.1 8.9,17.6 84.9,17.6 "/>
<polygon class="st1" points="8.9,17.6 2.1,84.1 19.3,84.1 "/>
<polygon class="st0" points="48.7,49.2 39.4,49.2 37.9,41 47.3,41 "/>
<polygon class="st0" points="65,49.2 55.6,49.2 54.2,41 63.6,41 "/>
<polygon class="st0" points="81.3,49.2 71.9,49.2 70.5,41 79.9,41 "/>
<polygon class="st0" points="35.2,63.3 25.8,63.3 24.4,55.1 33.7,55.1 "/>
<polygon class="st0" points="51.5,63.3 42.1,63.3 40.7,55.1 50,55.1 "/>
<polygon class="st0" points="67.8,63.3 58.4,63.3 56.9,55.1 66.3,55.1 "/>
<polygon class="st0" points="84,63.3 74.7,63.3 73.2,55.1 82.6,55.1 "/>
<polygon class="st0" points="37.9,77.4 28.5,77.4 27.1,69.1 36.5,69.1 "/>
<polygon class="st0" points="54.2,77.4 44.8,77.4 43.4,69.1 52.8,69.1 "/>
<polygon class="st0" points="70.5,77.4 61.1,77.4 59.7,69.1 69.1,69.1 "/>
<path class="st1" d="M15.5,17.3c0-3,1.4-5.4,3.1-5.4c1.7,0,3.1,2.4,3.1,5.4s-1.4,5.4-3.1,5.4"/>
<path class="st1" d="M34.6,17.3c0-3,1.4-5.4,3.1-5.4s3.1,2.4,3.1,5.4s-1.4,5.4-3.1,5.4"/>
<path class="st1" d="M53.8,17.3c0-3,1.4-5.4,3.1-5.4c1.7,0,3.1,2.4,3.1,5.4s-1.4,5.4-3.1,5.4"/>
<path class="st1" d="M72.9,17.3c0-3,1.4-5.4,3.1-5.4c1.7,0,3.1,2.4,3.1,5.4s-1.4,5.4-3.1,5.4"/>
<polyline class="st1" points="2.1,84.1 10.7,79.1 19.3,84.1 "/>
</svg>
