<?xml version="1.0" encoding="utf-8"?>
<!-- Generator: Adobe Illustrator 26.3.1, SVG Export Plug-In . SVG Version: 6.00 Build 0)  -->
<svg version="1.1" id="Capa_1" xmlns="http://www.w3.org/2000/svg" xmlns:xlink="http://www.w3.org/1999/xlink" x="0px" y="0px"
	 width="96px" height="96px" viewBox="0 0 96 96" enable-background="new 0 0 96 96" xml:space="preserve">
<g>
	<path fill="#00EFE8" d="M42.59,13.12c1.84-0.26,3.72-0.41,5.64-0.41c21.04,0,38.1,16.25,38.1,36.29H74.95
		C74.95,30.82,60.91,15.76,42.59,13.12z"/>
	
		<path fill="none" stroke="#2C363B" stroke-width="2.552" stroke-linecap="round" stroke-linejoin="round" stroke-miterlimit="10" d="
		M74.35,55.72c9.79,0,16.6,0,16.6,0c1.39,0,2.53-1.14,2.53-2.53v-1.66c0-1.39-1.14-2.53-2.53-2.53H21.89H5.29
		c-1.39,0-2.53,1.14-2.53,2.53l0,1.66c0,1.39,1.14,2.53,2.53,2.53C5.29,55.72,49.44,55.72,74.35,55.72z"/>
	
		<path fill="none" stroke="#2C363B" stroke-width="2.552" stroke-linecap="round" stroke-linejoin="round" stroke-miterlimit="10" d="
		M9.85,49c0-20.04,17.06-36.29,38.1-36.29c13.15,0,24.75,6.35,31.59,16c0,0,2.78,4.41,3.45,6.03c1.85,4.43,3.05,9.2,3.05,14.26"/>
	
		<path fill="none" stroke="#2C363B" stroke-width="2.552" stroke-linecap="round" stroke-linejoin="round" stroke-miterlimit="10" d="
		M44.09,12.9l-1.44-5.62l0.08-0.02c3.43-0.75,6.99-0.75,10.42,0l0.08,0.02l-1.44,5.62"/>
	
		<path fill="none" stroke="#2C363B" stroke-width="2.552" stroke-linecap="round" stroke-linejoin="round" stroke-miterlimit="10" d="
		M11.66,68.51l7.03-8.62c0,0,2.68-3.78,8.05-4.17h2.86l11.36,3.01l12.08-2.5c0,0,2.68-0.31,3.44,2.19c0,0,1.75,3-1.92,4.43
		l-3.18,1.72l5.52-0.06l8.82-2.39l9.25-6.39h2.78c0,0,2.14,2.72-0.06,4.91l-9.37,8.16c-2.34,1.29-4.59,2.76-7.14,3.57
		c-4.59,1.46-9.48,2.17-14.3,2.06c-6.59-0.16-16.08-2.76-20.11,4.3"/>
	
		<path fill="none" stroke="#00EFE8" stroke-width="2.552" stroke-linecap="round" stroke-linejoin="round" stroke-miterlimit="10" d="
		M23.23,87.34L5.16,75.05c-0.92-0.62-1.16-1.88-0.53-2.8l2.83-4.16c0.62-0.92,1.88-1.16,2.8-0.53l18.07,12.29
		c0.92,0.62,1.16,1.88,0.53,2.8l-2.83,4.16C25.41,87.73,24.15,87.97,23.23,87.34z"/>
</g>
</svg>
