<?xml version="1.0" encoding="utf-8"?>
<!-- Generator: Adobe Illustrator 26.3.1, SVG Export Plug-In . SVG Version: 6.00 Build 0)  -->
<svg version="1.1" id="Capa_1" xmlns="http://www.w3.org/2000/svg" xmlns:xlink="http://www.w3.org/1999/xlink" x="0px" y="0px"
	 width="96px" height="96px" viewBox="0 0 96 96" enable-background="new 0 0 96 96" xml:space="preserve">
<g>
	<rect x="41.85" y="76.71" fill="#00EFE8" width="15.89" height="16.17"/>
	
		<line fill="none" stroke="#2C363B" stroke-width="1.7533" stroke-linecap="round" stroke-linejoin="round" stroke-miterlimit="10" x1="69.58" y1="43.12" x2="69.58" y2="92.88"/>
	
		<line fill="none" stroke="#2C363B" stroke-width="1.7533" stroke-linecap="round" stroke-linejoin="round" stroke-miterlimit="10" x1="30.01" y1="92.88" x2="30.01" y2="43.12"/>
	
		<rect x="35.02" y="50.12" fill="#FFFFFF" stroke="#2C363B" stroke-width="1.7533" stroke-linecap="round" stroke-linejoin="round" stroke-miterlimit="10" width="6.29" height="7.38"/>
	
		<rect x="46.67" y="50.12" fill="#FFFFFF" stroke="#2C363B" stroke-width="1.7533" stroke-linecap="round" stroke-linejoin="round" stroke-miterlimit="10" width="6.29" height="7.38"/>
	
		<rect x="35.02" y="64.23" fill="#FFFFFF" stroke="#2C363B" stroke-width="1.7533" stroke-linecap="round" stroke-linejoin="round" stroke-miterlimit="10" width="6.29" height="7.38"/>
	
		<rect x="46.65" y="64.23" fill="#FFFFFF" stroke="#2C363B" stroke-width="1.7533" stroke-linecap="round" stroke-linejoin="round" stroke-miterlimit="10" width="6.29" height="7.38"/>
	
		<polyline fill="#FFFFFF" stroke="#2C363B" stroke-width="1.7533" stroke-linecap="round" stroke-linejoin="round" stroke-miterlimit="10" points="
		64.57,50.12 64.57,57.5 58.28,57.5 58.28,50.12 64.57,50.12 	"/>
	
		<rect x="58.28" y="64.23" fill="#FFFFFF" stroke="#2C363B" stroke-width="1.7533" stroke-linecap="round" stroke-linejoin="round" stroke-miterlimit="10" width="6.29" height="7.38"/>
	
		<line fill="none" stroke="#2C363B" stroke-width="1.7533" stroke-linecap="round" stroke-linejoin="round" stroke-miterlimit="10" x1="26.5" y1="43.12" x2="73.09" y2="43.12"/>
	
		<line fill="none" stroke="#2C363B" stroke-width="1.7533" stroke-linecap="round" stroke-linejoin="round" stroke-miterlimit="10" x1="26.5" y1="92.88" x2="73.09" y2="92.88"/>
	
		<line fill="none" stroke="#2C363B" stroke-width="1.7533" stroke-linejoin="round" stroke-miterlimit="10" x1="49.79" y1="76.71" x2="49.79" y2="92.88"/>
</g>
<rect x="7.41" y="55.17" fill="none" stroke="#2C363B" stroke-width="1.7533" stroke-linecap="round" stroke-linejoin="round" stroke-miterlimit="10" width="22.65" height="37.71"/>
<rect x="69.58" y="55.17" fill="none" stroke="#2C363B" stroke-width="1.7533" stroke-linecap="round" stroke-linejoin="round" stroke-miterlimit="10" width="22.65" height="37.71"/>
<rect x="12.55" y="61.19" fill="none" stroke="#2C363B" stroke-width="1.7533" stroke-linecap="round" stroke-linejoin="round" stroke-miterlimit="10" width="4.35" height="5.63"/>
<rect x="20.21" y="61.19" fill="none" stroke="#2C363B" stroke-width="1.7533" stroke-linecap="round" stroke-linejoin="round" stroke-miterlimit="10" width="4.35" height="5.63"/>
<rect x="12.55" y="70.38" fill="none" stroke="#2C363B" stroke-width="1.7533" stroke-linecap="round" stroke-linejoin="round" stroke-miterlimit="10" width="4.35" height="5.63"/>
<rect x="20.21" y="70.38" fill="none" stroke="#2C363B" stroke-width="1.7533" stroke-linecap="round" stroke-linejoin="round" stroke-miterlimit="10" width="4.35" height="5.63"/>
<rect x="74.9" y="61.19" fill="none" stroke="#2C363B" stroke-width="1.7533" stroke-linecap="round" stroke-linejoin="round" stroke-miterlimit="10" width="4.35" height="5.63"/>
<rect x="82.56" y="61.19" fill="none" stroke="#2C363B" stroke-width="1.7533" stroke-linecap="round" stroke-linejoin="round" stroke-miterlimit="10" width="4.35" height="5.63"/>
<rect x="74.9" y="70.38" fill="none" stroke="#2C363B" stroke-width="1.7533" stroke-linecap="round" stroke-linejoin="round" stroke-miterlimit="10" width="4.35" height="5.63"/>
<rect x="82.56" y="70.38" fill="none" stroke="#2C363B" stroke-width="1.7533" stroke-linecap="round" stroke-linejoin="round" stroke-miterlimit="10" width="4.35" height="5.63"/>
<path fill="none" stroke="#2C363B" stroke-width="1.7533" stroke-linecap="round" stroke-linejoin="round" stroke-miterlimit="10" d="
	M6.59,43.96"/>
<line fill="none" stroke="#2C363B" stroke-width="1.7533" stroke-linecap="round" stroke-linejoin="round" stroke-miterlimit="10" x1="7.29" y1="41.37" x2="7.29" y2="92.69"/>
<path fill="none" stroke="#2C363B" stroke-width="1.7533" stroke-linecap="round" stroke-linejoin="round" stroke-miterlimit="10" d="
	M7.29,41.37c1.92,1.34,3.32,1.44,4.25,1.29c1.26-0.21,1.88-0.93,3.42-1.06c1.19-0.1,2.19,0.21,2.83,0.47c0,1.65,0,3.3,0,4.96
	c-1.6-0.25-2.84-0.06-3.78,0.24c-1.3,0.41-1.77,0.96-2.83,1.06c-1.23,0.11-2.4-0.47-3.42-1.3"/>
<g>
	<polygon fill="#00EFE8" points="70.53,14.17 32.03,14.17 30.64,5.28 69.14,5.28 	"/>
	
		<line fill="none" stroke="#2C363B" stroke-width="1.0335" stroke-linecap="round" stroke-linejoin="round" stroke-miterlimit="10" x1="32.03" y1="14.17" x2="70.53" y2="14.17"/>
	
		<polygon fill="none" stroke="#2C363B" stroke-width="1.0335" stroke-linecap="round" stroke-linejoin="round" stroke-miterlimit="10" points="
		74.41,39 35.91,39 30.64,5.28 69.14,5.28 	"/>
	
		<polygon fill="none" stroke="#2C363B" stroke-width="1.0335" stroke-linecap="round" stroke-linejoin="round" stroke-miterlimit="10" points="
		30.64,5.28 27.19,39 35.91,39 	"/>
	<polygon fill="#00EFE8" points="50.82,21.31 46.07,21.31 45.33,17.14 50.09,17.14 	"/>
	<polygon fill="#00EFE8" points="59.08,21.31 54.33,21.31 53.6,17.14 58.35,17.14 	"/>
	<polygon fill="#00EFE8" points="67.34,21.31 62.59,21.31 61.86,17.14 66.61,17.14 	"/>
	<polygon fill="#00EFE8" points="43.95,28.45 39.19,28.45 38.46,24.28 43.21,24.28 	"/>
	<polygon fill="#00EFE8" points="52.21,28.45 47.45,28.45 46.72,24.28 51.48,24.28 	"/>
	<polygon fill="#00EFE8" points="60.47,28.45 55.72,28.45 54.98,24.28 59.74,24.28 	"/>
	<polygon fill="#00EFE8" points="68.73,28.45 63.98,28.45 63.25,24.28 68,24.28 	"/>
	<polygon fill="#00EFE8" points="45.33,35.59 40.58,35.59 39.85,31.42 44.6,31.42 	"/>
	<polygon fill="#00EFE8" points="53.6,35.59 48.84,35.59 48.11,31.42 52.86,31.42 	"/>
	<polygon fill="#00EFE8" points="61.86,35.59 57.1,35.59 56.37,31.42 61.13,31.42 	"/>
	
		<path fill="none" stroke="#2C363B" stroke-width="1.0335" stroke-linecap="round" stroke-linejoin="round" stroke-miterlimit="10" d="
		M33.96,5.13c0-1.51,0.7-2.74,1.56-2.74c0.86,0,1.56,1.23,1.56,2.74s-0.7,2.74-1.56,2.74"/>
	
		<path fill="none" stroke="#2C363B" stroke-width="1.0335" stroke-linecap="round" stroke-linejoin="round" stroke-miterlimit="10" d="
		M43.67,5.13c0-1.51,0.7-2.74,1.56-2.74s1.56,1.23,1.56,2.74s-0.7,2.74-1.56,2.74"/>
	
		<path fill="none" stroke="#2C363B" stroke-width="1.0335" stroke-linecap="round" stroke-linejoin="round" stroke-miterlimit="10" d="
		M53.38,5.13c0-1.51,0.7-2.74,1.56-2.74s1.56,1.23,1.56,2.74s-0.7,2.74-1.56,2.74"/>
	
		<path fill="none" stroke="#2C363B" stroke-width="1.0335" stroke-linecap="round" stroke-linejoin="round" stroke-miterlimit="10" d="
		M63.09,5.13c0-1.51,0.7-2.74,1.56-2.74c0.86,0,1.56,1.23,1.56,2.74s-0.7,2.74-1.56,2.74"/>
	
		<polyline fill="none" stroke="#2C363B" stroke-width="1.0335" stroke-linecap="round" stroke-linejoin="round" stroke-miterlimit="10" points="
		27.19,39 31.55,36.47 35.91,39 	"/>
</g>
</svg>
