<?xml version="1.0" encoding="utf-8"?>
<!-- Generator: Adobe Illustrator 26.3.1, SVG Export Plug-In . SVG Version: 6.00 Build 0)  -->
<svg version="1.1" id="Capa_1" xmlns="http://www.w3.org/2000/svg" xmlns:xlink="http://www.w3.org/1999/xlink" x="0px" y="0px"
	 width="96px" height="96px" viewBox="0 0 96 96" enable-background="new 0 0 96 96" xml:space="preserve">
<g>
	<polygon fill="#00EFE8" points="24.29,35.16 30.39,47.14 27.73,52.96 24.88,48.65 21.35,55.97 18.06,49.7 	"/>
	<polygon fill="#00EFE8" points="79.26,23.89 94.26,41.76 71.78,42.74 72.58,40.7 	"/>
	<path fill="#00EFE8" d="M63.86,24.85H35.48c-2.13,0-3.86,1.73-3.86,3.86v0h36.09v0C67.71,26.58,65.99,24.85,63.86,24.85z"/>
	
		<path fill="none" stroke="#2C363B" stroke-width="1.9757" stroke-linecap="round" stroke-linejoin="round" stroke-miterlimit="10" d="
		M61.03,29.41v10.82c0,6.47-5.29,11.76-11.76,11.76h0c-6.47,0-11.76-5.29-11.76-11.76V29.41"/>
	
		<path fill="none" stroke="#2C363B" stroke-width="1.9757" stroke-linecap="round" stroke-linejoin="round" stroke-miterlimit="10" d="
		M63.45,24.85H35.08c-2.13,0-3.86,1.73-3.86,3.86v0h36.09v0C67.31,26.58,65.59,24.85,63.45,24.85z"/>
	
		<path fill="none" stroke="#2C363B" stroke-width="1.9757" stroke-linecap="round" stroke-linejoin="round" stroke-miterlimit="10" d="
		M37.5,42.63c-2.51,0-4.54-2.03-4.54-4.54c0-2.51,2.03-4.54,4.54-4.54"/>
	
		<path fill="none" stroke="#2C363B" stroke-width="1.9757" stroke-linecap="round" stroke-linejoin="round" stroke-miterlimit="10" d="
		M61.03,42.63c2.51,0,4.54-2.03,4.54-4.54c0-2.51-2.03-4.54-4.54-4.54"/>
	
		<path fill="none" stroke="#2C363B" stroke-width="1.9757" stroke-linecap="round" stroke-linejoin="round" stroke-miterlimit="10" d="
		M35.23,34.21c-0.3,0.1-0.63,0.16-0.97,0.16c-1.65,0-2.98-1.34-2.98-2.98c0-1.07,0.56-2.01,1.41-2.54"/>
	
		<path fill="none" stroke="#2C363B" stroke-width="1.9757" stroke-linecap="round" stroke-linejoin="round" stroke-miterlimit="10" d="
		M66.35,28.71c0.53,0.7,0.84,1.58,0.84,2.53c0,1.79-1.13,3.33-2.71,3.93"/>
	
		<path fill="none" stroke="#2C363B" stroke-width="1.9757" stroke-linecap="round" stroke-linejoin="round" stroke-miterlimit="10" d="
		M37.5,33.12c0,0,8.07,0.62,11.76-4.28"/>
	
		<path fill="none" stroke="#2C363B" stroke-width="1.9757" stroke-linecap="round" stroke-linejoin="round" stroke-miterlimit="10" d="
		M50.62,28.79c0.37,0.85,1.21,3.25-0.34,4.7c0,0,6.24,0.3,10.23-4.59"/>
	
		<path fill="none" stroke="#2C363B" stroke-width="1.9757" stroke-linecap="round" stroke-linejoin="round" stroke-miterlimit="10" d="
		M34.54,24.89c-0.01-0.15-0.01-0.3-0.01-0.45c0-6.31,6.59-11.43,14.71-11.43s14.71,5.12,14.71,11.43c0,0.14,0,0.27-0.01,0.41"/>
	
		<path fill="none" stroke="#2C363B" stroke-width="1.9757" stroke-linecap="round" stroke-linejoin="round" stroke-miterlimit="10" d="
		M57.51,48.6c3.05,0.79,5,2.02,5,3.39c0,2.39-5.93,4.33-13.24,4.33s-13.24-1.94-13.24-4.33c0-1.37,1.95-2.6,5-3.39"/>
	
		<path fill="none" stroke="#2C363B" stroke-width="1.9757" stroke-linecap="round" stroke-linejoin="round" stroke-miterlimit="10" d="
		M61.82,53.37l6.1,3.37c2.92,1.62,4.74,4.69,4.74,8.03v18.22H54.07h-4.8"/>
	
		<path fill="none" stroke="#2C363B" stroke-width="1.9757" stroke-linecap="round" stroke-linejoin="round" stroke-miterlimit="10" d="
		M36.65,53.37l-6.1,3.37c-2.92,1.62-4.74,4.69-4.74,8.03v18.22H44.4h4.8"/>
	
		<polyline fill="none" stroke="#2C363B" stroke-width="1.9757" stroke-linecap="round" stroke-linejoin="round" stroke-miterlimit="10" points="
		66.52,55.97 79.26,23.89 94.26,41.76 71.78,42.74 	"/>
	
		<line fill="none" stroke="#2C363B" stroke-width="1.9757" stroke-linecap="round" stroke-linejoin="round" stroke-miterlimit="10" x1="63" y1="82.99" x2="63" y2="70.18"/>
	
		<line fill="none" stroke="#2C363B" stroke-width="1.9757" stroke-linecap="round" stroke-linejoin="round" stroke-miterlimit="10" x1="63" y1="73.87" x2="72.66" y2="73.87"/>
	
		<line fill="none" stroke="#2C363B" stroke-width="1.9757" stroke-linecap="round" stroke-linejoin="round" stroke-miterlimit="10" x1="35.49" y1="82.99" x2="35.49" y2="70.18"/>
	
		<line fill="none" stroke="#2C363B" stroke-width="1.9757" stroke-linecap="round" stroke-linejoin="round" stroke-miterlimit="10" x1="35.49" y1="73.87" x2="25.83" y2="73.87"/>
	
		<polygon fill="none" stroke="#00EFE8" stroke-width="1.9757" stroke-linecap="round" stroke-linejoin="round" stroke-miterlimit="10" points="
		57.5,75.32 54.66,77.04 51.82,75.32 51.82,69.64 57.5,69.64 	"/>
	
		<polyline fill="none" stroke="#2C363B" stroke-width="1.9757" stroke-linecap="round" stroke-linejoin="round" stroke-miterlimit="10" points="
		34.24,54.7 24.29,35.16 1.74,82.99 37.05,82.99 	"/>
	
		<polyline fill="none" stroke="#2C363B" stroke-width="1.9757" stroke-linecap="round" stroke-linejoin="round" stroke-miterlimit="10" points="
		17.74,49.07 21.35,55.97 24.88,48.65 27.73,52.96 29.91,47.14 	"/>
</g>
</svg>
