<?xml version="1.0" encoding="utf-8"?>
<!-- Generator: Adobe Illustrator 26.3.1, SVG Export Plug-In . SVG Version: 6.00 Build 0)  -->
<svg version="1.1" id="Capa_1" xmlns="http://www.w3.org/2000/svg" xmlns:xlink="http://www.w3.org/1999/xlink" x="0px" y="0px"
	 width="96px" height="96px" viewBox="0 0 96 96" enable-background="new 0 0 96 96" xml:space="preserve">
<g>
	<path fill="#00EFE8" d="M94.82,26.93c-0.25-0.43-0.48-0.88-0.7-1.34c-0.01,0-0.02,0-0.03,0c-1.02-0.15-1.97-0.39-2.88-0.91
		c-0.67-0.38-1.28-0.85-1.91-1.29h-1.47c-1.06,0-1.92,0.87-1.92,1.92c0,1.06,0.87,1.92,1.92,1.92H95
		C94.94,27.14,94.88,27.03,94.82,26.93z"/>
	<g>
		
			<path fill="none" stroke="#2C363B" stroke-width="1.2944" stroke-linecap="round" stroke-linejoin="round" stroke-miterlimit="10" d="
			M86.64,23.17H81.6L75.04,4.32h-6.13l1.55,18.85h-11.9l-3.68-5.46h-3.83l2.35,9.53l-1.8,6.06h4.36l2.45-4.34l-1.33,2.35h13.4
			l-1.55,18.85h6.13l6.56-18.85h8.26c3.59,0,5.31-0.99,5.31-4.07C95.17,26.41,90.2,23.17,86.64,23.17z"/>
		
			<line fill="none" stroke="#2C363B" stroke-width="1.2944" stroke-linecap="round" stroke-linejoin="round" stroke-miterlimit="10" x1="70.46" y1="23.17" x2="82.95" y2="23.17"/>
	</g>
	<path fill="#00EFE8" d="M63.7,27.24h-1.96c-0.53,0-0.96-0.43-0.96-0.96v0c0-0.53,0.43-0.96,0.96-0.96h1.96
		c0.53,0,0.96,0.43,0.96,0.96v0C64.66,26.81,64.23,27.24,63.7,27.24z"/>
	<path fill="#00EFE8" d="M69.4,27.24h-1.96c-0.53,0-0.96-0.43-0.96-0.96v0c0-0.53,0.43-0.96,0.96-0.96h1.96
		c0.53,0,0.96,0.43,0.96,0.96v0C70.36,26.81,69.93,27.24,69.4,27.24z"/>
	<path fill="#00EFE8" d="M75.1,27.24h-1.96c-0.53,0-0.96-0.43-0.96-0.96v0c0-0.53,0.43-0.96,0.96-0.96h1.96
		c0.53,0,0.96,0.43,0.96,0.96v0C76.06,26.81,75.63,27.24,75.1,27.24z"/>
	<path fill="#00EFE8" d="M80.8,27.24h-1.96c-0.53,0-0.96-0.43-0.96-0.96v0c0-0.53,0.43-0.96,0.96-0.96h1.96
		c0.53,0,0.96,0.43,0.96,0.96v0C81.76,26.81,81.33,27.24,80.8,27.24z"/>
</g>
<g>
	<circle fill="#00EFE8" cx="13.27" cy="86.69" r="4.79"/>
	<polygon fill="#00EFE8" points="61.31,56.31 56.49,56.31 56.49,75.95 64.61,75.95 	"/>
	
		<path fill="none" stroke="#2C363B" stroke-width="1.3162" stroke-linecap="round" stroke-linejoin="round" stroke-miterlimit="10" d="
		M59.69,86.71h3.06c1.02,0,1.86-0.83,1.86-1.86v-8.92c0-0.1-0.01-0.21-0.03-0.31L60.7,52.7c-0.15-0.89-0.92-1.55-1.83-1.55H5.3
		c-1.02,0-1.86,0.83-1.86,1.86v31.84c0,1.02,0.83,1.86,1.86,1.86h3.18"/>
	
		<line fill="none" stroke="#2C363B" stroke-width="1.3162" stroke-linecap="round" stroke-linejoin="round" stroke-miterlimit="10" x1="31.96" y1="86.71" x2="50.11" y2="86.71"/>
	
		<line fill="none" stroke="#2C363B" stroke-width="1.3162" stroke-linecap="round" stroke-linejoin="round" stroke-miterlimit="10" x1="18.06" y1="86.71" x2="22.38" y2="86.71"/>
	
		<rect x="8.48" y="56.31" fill="none" stroke="#2C363B" stroke-width="1.3162" stroke-linecap="round" stroke-linejoin="round" stroke-miterlimit="10" width="8.5" height="7.79"/>
	
		<rect x="16.98" y="56.31" fill="none" stroke="#2C363B" stroke-width="1.3162" stroke-linecap="round" stroke-linejoin="round" stroke-miterlimit="10" width="8.5" height="7.79"/>
	
		<rect x="25.49" y="56.31" fill="none" stroke="#2C363B" stroke-width="1.3162" stroke-linecap="round" stroke-linejoin="round" stroke-miterlimit="10" width="8.5" height="7.79"/>
	
		<rect x="33.99" y="56.31" fill="none" stroke="#2C363B" stroke-width="1.3162" stroke-linecap="round" stroke-linejoin="round" stroke-miterlimit="10" width="8.5" height="7.79"/>
	
		<rect x="42.5" y="56.31" fill="none" stroke="#2C363B" stroke-width="1.3162" stroke-linecap="round" stroke-linejoin="round" stroke-miterlimit="10" width="8.5" height="7.79"/>
	
		<rect x="8.48" y="68.93" fill="none" stroke="#2C363B" stroke-width="1.3162" stroke-linecap="round" stroke-linejoin="round" stroke-miterlimit="10" width="8.5" height="7.79"/>
	
		<rect x="16.98" y="68.93" fill="none" stroke="#2C363B" stroke-width="1.3162" stroke-linecap="round" stroke-linejoin="round" stroke-miterlimit="10" width="8.5" height="7.79"/>
	
		<rect x="25.49" y="68.93" fill="none" stroke="#2C363B" stroke-width="1.3162" stroke-linecap="round" stroke-linejoin="round" stroke-miterlimit="10" width="8.5" height="7.79"/>
	
		<rect x="39.15" y="68.93" fill="none" stroke="#2C363B" stroke-width="1.3162" stroke-linecap="round" stroke-linejoin="round" stroke-miterlimit="10" width="8.45" height="14.04"/>
	
		<line fill="none" stroke="#2C363B" stroke-width="1.3162" stroke-linecap="round" stroke-linejoin="round" stroke-miterlimit="10" x1="39.15" y1="78.15" x2="47.6" y2="78.15"/>
	
		<circle fill="none" stroke="#2C363B" stroke-width="1.3162" stroke-linecap="round" stroke-linejoin="round" stroke-miterlimit="10" cx="13.27" cy="86.69" r="4.79"/>
	<circle fill="#00EFE8" cx="27.17" cy="86.69" r="4.79"/>
	<circle fill="#00EFE8" cx="54.9" cy="86.69" r="4.79"/>
	
		<circle fill="none" stroke="#2C363B" stroke-width="1.3162" stroke-linecap="round" stroke-linejoin="round" stroke-miterlimit="10" cx="27.17" cy="86.69" r="4.79"/>
	
		<circle fill="none" stroke="#2C363B" stroke-width="1.3162" stroke-linecap="round" stroke-linejoin="round" stroke-miterlimit="10" cx="54.9" cy="86.69" r="4.79"/>
</g>
</svg>
