<?xml version="1.0" encoding="utf-8"?>
<!-- Generator: Adobe Illustrator 26.3.1, SVG Export Plug-In . SVG Version: 6.00 Build 0)  -->
<svg version="1.1" id="Capa_1" xmlns="http://www.w3.org/2000/svg" xmlns:xlink="http://www.w3.org/1999/xlink" x="0px" y="0px"
	 width="96px" height="96px" viewBox="0 0 96 96" enable-background="new 0 0 96 96" xml:space="preserve">
<path fill="#00EFE8" stroke="#2C363B" stroke-miterlimit="10" d="M77.42,1.31c-4.27,0.23-8.18,1.96-11.18,4.95
	c-2.84,2.84-4.52,6.43-4.91,10.51c-0.06,0.67-0.06,2.27,0,2.94c0.39,4.08,2.07,7.67,4.91,10.51c2.84,2.84,6.43,4.52,10.51,4.91
	c0.67,0.06,2.27,0.06,2.94,0c4.08-0.39,7.67-2.07,10.51-4.91s4.52-6.43,4.91-10.51c0.06-0.67,0.06-2.27,0-2.94
	c-0.39-4.08-2.07-7.67-4.91-10.51c-2.83-2.83-6.46-4.53-10.49-4.9C79.29,1.33,77.82,1.29,77.42,1.31z M79.55,3.34
	c1.09,0.11,1.93,0.27,2.84,0.54c3.61,1.04,6.73,3.45,8.68,6.69c1.4,2.33,2.12,4.96,2.12,7.7s-0.72,5.36-2.12,7.7
	c-2.22,3.7-5.96,6.28-10.16,7.03c-1.01,0.18-1.55,0.23-2.68,0.23s-1.67-0.05-2.68-0.23c-4.52-0.81-8.47-3.72-10.61-7.84
	c-1.5-2.88-2.01-6.19-1.46-9.43c0.73-4.29,3.31-8.06,7.07-10.31c1.95-1.17,4.16-1.88,6.4-2.07c0.19-0.01,0.39-0.03,0.45-0.04
	C77.6,3.28,79.28,3.31,79.55,3.34z"/>
<path d="M82.4,4.84c-0.26,0.03-0.58,0.17-0.78,0.34c-0.29,0.24-0.41,0.46-0.59,1.01c-0.07,0.21-0.22,0.67-0.33,1.02
	c-0.11,0.35-0.39,1.19-0.61,1.87c-0.22,0.68-0.41,1.26-0.42,1.28c-0.02,0.03-0.02-0.35-0.02-0.99c0.01-0.95,0-1.06-0.04-1.22
	c-0.1-0.35-0.34-0.69-0.64-0.88c-0.44-0.29-1.03-0.34-1.51-0.11c-0.42,0.19-0.76,0.62-0.85,1.07c-0.03,0.15-0.04,1.01-0.07,4.6
	l-0.03,4.42l-0.06,0.1c-0.38,0.58-0.5,1.31-0.3,1.97c0.13,0.44,0.46,0.93,0.84,1.23c0.23,0.18,0.65,0.4,0.9,0.47
	c1.4,0.36,2.83-0.63,3.01-2.1c0.05-0.42-0.03-0.92-0.23-1.31c-0.03-0.07-0.06-0.14-0.05-0.15c0.01-0.02,0.21-0.62,1.05-3.2
	c0.34-1.04,0.71-2.17,0.82-2.52c0.11-0.35,0.3-0.93,0.42-1.28c1.32-4.03,1.25-3.8,1.25-4.07c0-0.25-0.04-0.43-0.16-0.69
	C83.69,5.11,83.04,4.76,82.4,4.84z"/>
<g>
	<path fill="#00EFE8" d="M6.94,67.58L7.01,84.4l2.26,2.89l12.56,0.38h15c0,0-16.91-2.94-21.59-8.82S6.94,67.58,6.94,67.58z"/>
	
		<path fill="none" stroke="#2C363B" stroke-width="2.3847" stroke-linecap="round" stroke-linejoin="round" stroke-miterlimit="10" d="
		M74.38,87.67H10.97c-2.23,0-4.04-1.81-4.04-4.04v-39.1c0-2.23,1.81-4.04,4.04-4.04h63.41c2.23,0,4.04,1.81,4.04,4.04v39.1
		C78.42,85.87,76.61,87.67,74.38,87.67z"/>
	
		<polyline fill="none" stroke="#2C363B" stroke-width="2.3847" stroke-linecap="round" stroke-linejoin="round" stroke-miterlimit="10" points="
		6.94,48.69 20.33,58.92 65.42,58.92 78.42,47.7 	"/>
	<path fill="none" stroke="#2C363B" stroke-width="2.3847" stroke-miterlimit="10" d="M43.52,66.4h-1.73
		c-1.01,0-1.82-0.82-1.82-1.82v-8.92c0-1.01,0.82-1.82,1.82-1.82h1.73c1.01,0,1.82,0.82,1.82,1.82v8.92
		C45.34,65.59,44.52,66.4,43.52,66.4z"/>
	<path fill="none" stroke="#2C363B" stroke-width="2.3847" stroke-miterlimit="10" d="M14.02,39.86v-1.42
		c0-0.97,0.78-1.75,1.75-1.75h2.69c0.97,0,1.75,0.78,1.75,1.75v1.42"/>
	<path fill="none" stroke="#2C363B" stroke-width="2.3847" stroke-miterlimit="10" d="M65.7,39.86v-1.42c0-0.97,0.78-1.75,1.75-1.75
		h2.69c0.97,0,1.75,0.78,1.75,1.75v1.42"/>
	<path fill="none" stroke="#2C363B" stroke-width="2.3847" stroke-miterlimit="10" d="M52.59,40.42c0.38-0.53,0.63-1.17,0.63-1.87
		v-7.06c0-0.84-0.68-1.51-1.51-1.51H33.66c-0.84,0-1.51,0.68-1.51,1.51v7.06c0,0.7,0.24,1.34,0.63,1.87H52.59z"/>
	<path fill="none" stroke="#2C363B" stroke-width="2.3847" stroke-miterlimit="10" d="M56.93,40.42c0.01-0.01,0.02-0.02,0.03-0.03
		V30.37c0-2.29-1.85-4.14-4.14-4.14H31.88c-2.14,0-3.88,1.74-3.88,3.88v10.02c0.12,0.12,0.18,0.18,0.3,0.3H56.93z"/>
	
		<line fill="none" stroke="#00EFE8" stroke-width="1.7885" stroke-linecap="round" stroke-linejoin="round" stroke-miterlimit="10" x1="62.19" y1="82.62" x2="58.04" y2="82.62"/>
	
		<path fill="none" stroke="#00EFE8" stroke-width="1.7885" stroke-linecap="round" stroke-linejoin="round" stroke-miterlimit="10" d="
		M73.16,65.89v13.75c0,1.65-1.24,2.99-2.76,2.99h-4.69"/>
</g>
</svg>
